<?xml version="1.0" encoding="utf-8"?>
<!-- Generator: Adobe Illustrator 19.1.0, SVG Export Plug-In . SVG Version: 6.00 Build 0)  -->
<svg version="1.1" id="Layer_1" xmlns="http://www.w3.org/2000/svg" xmlns:xlink="http://www.w3.org/1999/xlink" x="0px" y="0px"
	 viewBox="0 0 252 288" style="enable-background:new 0 0 252 288;" xml:space="preserve">
<style type="text/css">
	.st0{display:none;}
</style>
<path class="st0" d="M25,0C11.2,0,0,11.2,0,25s11.2,25,25,25s25-11.2,25-25S38.8,0,25,0z M18.6,43l4.6-15H13L32.4,7l-4.6,15H38
	L18.6,43z"/>
<g>
	<path d="M25.8,28.7c-1-0.9-2.6-1.3-4.7-1.3c-0.6,0-1.1,0-1.5,0c-0.4,0-0.8,0-1.2,0.1v10.8l0.1,0c0.8,0,1.5,0.1,1.9,0.1
		c2.4,0,4.2-0.4,5.3-1.3c1.1-0.9,1.7-2.3,1.7-4.3C27.4,30.9,26.8,29.6,25.8,28.7z"/>
	<path d="M18.8,25.1c0.2,0,0.4,0,0.7,0c2.2,0,3.8-0.4,4.8-1.3c1-0.9,1.5-2.2,1.5-4.1c0-1.6-0.5-2.8-1.4-3.6c-1-0.8-2.4-1.2-4.4-1.2
		c-0.3,0-0.8,0-1.5,0.1h-0.1l0,10.1C18.5,25,18.6,25.1,18.8,25.1z"/>
	<path d="M25,0C11.2,0,0,11.2,0,25s11.2,25,25,25s25-11.2,25-25S38.8,0,25,0z M30.5,38.5c-1.8,1.4-4.4,2.1-7.8,2.1H9.8v-2l2.5-0.2
		l0.7-0.7V15.4l-0.7-0.6l-2.5-0.2v-2h12.5c3.1,0,5.4,0.5,6.9,1.6c1.5,1.1,2.3,2.7,2.3,4.9c0,1.6-0.5,3-1.5,4.1
		c-1,1.1-2.5,1.9-4.4,2.4c2.4,0,4.2,0.7,5.6,1.8c1.3,1.2,2,2.8,2,4.9C33.2,35.1,32.3,37.1,30.5,38.5z M40.2,18.9h-6.4V18
		c2-1.6,3.3-2.8,3.9-3.6c0.6-0.8,0.9-1.5,0.9-2.2c0-0.7-0.2-1.2-0.5-1.5c-0.3-0.4-0.8-0.6-1.4-0.6c-0.2,0-0.4,0-0.6,0.1
		s-0.4,0.1-0.6,0.3v1.5c-0.1,0.1-0.2,0.1-0.3,0.2c-0.1,0-0.2,0.1-0.3,0.1c-0.2,0-0.4-0.1-0.6-0.2c-0.1-0.1-0.2-0.3-0.2-0.6
		c0-0.5,0.3-1,0.9-1.4s1.3-0.6,2.1-0.6c0.9,0,1.6,0.2,2.1,0.7c0.5,0.5,0.8,1.1,0.8,1.9c0,0.7-0.3,1.5-1,2.3c-0.6,0.8-1.9,2-3.8,3.5
		h4.2l0.3-1.2h0.6V18.9z"/>
</g>
</svg>
