<?xml version="1.0" encoding="utf-8"?>
<!-- Generator: Adobe Illustrator 19.1.0, SVG Export Plug-In . SVG Version: 6.00 Build 0)  -->
<svg version="1.1" id="Layer_1" xmlns="http://www.w3.org/2000/svg" xmlns:xlink="http://www.w3.org/1999/xlink" x="0px" y="0px"
	 viewBox="0 0 504 504" style="enable-background:new 0 0 504 504;" xml:space="preserve">
<style type="text/css">
	.st0{fill:#333333;}
</style>
<g>
	<path class="st0" d="M259.9,289.1c-10.5-8.8-26.3-13.3-47.4-13.3c-6.2,0-11.3,0.1-15.4,0.2c-4.1,0.1-8.2,0.3-12.3,0.6v108.6
		l1.4,0.2c8.5,0.4,14.8,0.6,18.9,0.6c24.6,0,42.6-4.5,53.8-13.5c11.2-9,16.8-23.4,16.8-43.3C275.7,311.4,270.4,298,259.9,289.1z"/>
	<path class="st0" d="M189.1,252.6c1.6,0.1,4,0.1,7.2,0.1c21.9,0,38-4.4,48.3-13.2c10.3-8.8,15.5-22.6,15.5-41.4
		c0-16.4-4.8-28.6-14.4-36.5c-9.6-7.9-24.3-11.9-44.1-11.9c-3.3,0-8.5,0.3-15.6,0.8h-1.2l0.2,101.8
		C186.1,252.4,187.4,252.5,189.1,252.6z"/>
	<path class="st0" d="M252,0C112.8,0,0,112.8,0,252s112.8,252,252,252s252-112.8,252-252S391.2,0,252,0z M307.1,387.8
		c-18.2,14.2-44.4,21.2-78.6,21.2H98.6v-20.3l24.8-2.3l6.8-6.6V155.6l-6.8-6l-24.8-2.1v-20.5h126.2c30.9,0,54.2,5.5,69.8,16.5
		c15.6,11,23.4,27.5,23.4,49.4c0,16.6-5.1,30.4-15.2,41.6c-10.1,11.2-25,19.3-44.7,24.5c24.1,0.4,42.8,6.6,56.2,18.5
		c13.4,11.9,20.1,28.3,20.1,49.3C334.4,353.3,325.3,373.7,307.1,387.8z M405.4,190.6h-64.9v-8.8c20.4-16.6,33.6-28.7,39.4-36.3
		c5.9-7.6,8.8-15,8.8-22.2c0-6.6-1.7-11.8-5-15.5c-3.3-3.7-7.9-5.6-13.7-5.6c-2.2,0-4.3,0.3-6.4,0.8c-2.1,0.5-4.1,1.4-6.1,2.5v15
		c-1,0.7-2,1.2-3.1,1.6c-1,0.4-2.1,0.5-3.2,0.5c-2.4,0-4.3-0.7-5.7-2.1c-1.4-1.4-2.1-3.3-2.1-5.7c0-5.2,2.9-9.9,8.7-13.8
		c5.8-4,12.8-6,21-6c8.9,0,16,2.4,21.2,7.2c5.3,4.8,7.9,11.2,7.9,19.3c0,7.4-3.2,15.1-9.6,23.2c-6.4,8.1-19.2,19.7-38.3,35h42.1
		l2.5-11.9h6.3V190.6z"/>
</g>
</svg>
